<svg xmlns="http://www.w3.org/2000/svg" xmlns:xlink="http://www.w3.org/1999/xlink" aria-hidden="true" role="img" class="iconify iconify--clarity" width="32" height="32" preserveAspectRatio="xMidYMid meet" viewBox="0 0 36 36"><path d="M6 13.61h7.61V6H24v8.38h2V6a2 2 0 0 0-2-2H10.87L4 10.87V30a2 2 0 0 0 2 2h18a2 2 0 0 0 2-2H6zm0-1.92L11.69 6H12v6H6z" class="clr-i-outline clr-i-outline-path-1" fill="currentColor"></path><path d="M28.32 16.35a1 1 0 0 0-1.41 1.41L30.16 21H18a1 1 0 0 0 0 2h12.19l-3.28 3.28a1 1 0 1 0 1.41 1.41L34 22z" class="clr-i-outline clr-i-outline-path-2" fill="currentColor"></path></svg>